<?xml version="1.0" encoding="utf-8"?>
<!-- Uploaded to: SVG Repo, www.svgrepo.com, Generator: SVG Repo Mixer Tools -->
<svg fill="#000000" width="800px" height="800px" viewBox="-5 0 32 32" version="1.1" xmlns="http://www.w3.org/2000/svg">
<title>wordpress</title>
<path d="M1.563 16.219c0-1.375 0.281-2.656 0.813-3.813l4.469 12.25c-3.125-1.5-5.281-4.719-5.281-8.438zM17.281 15.75c0 0.813-0.313 1.719-0.719 3.031l-0.938 3.125-3.406-10.094c0.563-0.031 1.094-0.094 1.094-0.094 0.5-0.063 0.438-0.781-0.063-0.75 0 0-1.531 0.094-2.5 0.094-0.938 0-2.469-0.094-2.469-0.094-0.5-0.031-0.563 0.719-0.063 0.75 0 0 0.469 0.063 0.969 0.094l1.469 4-2.063 6.156-3.406-10.156c0.563-0.031 1.063-0.094 1.063-0.094 0.531-0.063 0.469-0.781-0.063-0.75 0 0-1.5 0.094-2.5 0.094h-0.594c1.688-2.531 4.563-4.219 7.844-4.219 2.438 0 4.656 0.938 6.344 2.469-0.063-0.031-0.094-0.031-0.125-0.031-0.938 0-1.594 0.813-1.594 1.688 0 0.75 0.469 1.406 0.938 2.188 0.344 0.625 0.781 1.438 0.781 2.594zM8.281 25.219l2.813-8.188 2.906 7.906c0 0.063 0.031 0.094 0.063 0.125-0.969 0.344-2.031 0.531-3.125 0.531-0.906 0-1.813-0.125-2.656-0.375zM19.156 11.719c0.75 1.344 1.156 2.875 1.156 4.5 0 3.469-1.875 6.469-4.656 8.125l2.875-8.313c0.531-1.313 0.688-2.406 0.688-3.344 0-0.344 0-0.656-0.063-0.969zM10.938 5.281c6.031 0 10.938 4.906 10.938 10.938s-4.906 10.938-10.938 10.938-10.938-4.906-10.938-10.938 4.906-10.938 10.938-10.938zM10.938 26.656c5.75 0 10.438-4.688 10.438-10.438s-4.688-10.438-10.438-10.438-10.438 4.688-10.438 10.438 4.688 10.438 10.438 10.438z"></path>
</svg>